<?xml version="1.0" encoding="UTF-8"?>
<!DOCTYPE svg PUBLIC "-//W3C//DTD SVG 1.1//EN" "http://www.w3.org/Graphics/SVG/1.1/DTD/svg11.dtd">
<svg xmlns="http://www.w3.org/2000/svg" version="1.1" width="512px" height="512px" style="shape-rendering:geometricPrecision; text-rendering:geometricPrecision; image-rendering:optimizeQuality; fill-rule:evenodd; clip-rule:evenodd" xmlns:xlink="http://www.w3.org/1999/xlink">
<g><path style="opacity:0.997" fill="#fefffe" d="M 68.5,31.5 C 193.167,31.3333 317.834,31.5 442.5,32C 470.883,38.0494 488.383,55.216 495,83.5C 495.667,197.833 495.667,312.167 495,426.5C 488.833,455.333 471.333,472.833 442.5,479C 317.833,479.667 193.167,479.667 68.5,479C 40.1171,472.951 22.6171,455.784 16,427.5C 15.3333,312.833 15.3333,198.167 16,83.5C 22.7965,55.2028 40.2965,37.8695 68.5,31.5 Z M 90.5,96.5 C 97.4738,95.29 103.474,97.1234 108.5,102C 135.275,123.141 161.775,144.641 188,166.5C 192.414,175.205 190.914,182.705 183.5,189C 157.167,210 130.833,231 104.5,252C 96.4179,256.177 89.2512,255.011 83,248.5C 79.6667,242.5 79.6667,236.5 83,230.5C 105.379,211.947 127.879,193.614 150.5,175.5C 127.879,157.386 105.379,139.053 83,120.5C 77.8036,109.986 80.3036,101.986 90.5,96.5 Z M 191.5,223.5 C 214.544,223.053 237.544,223.553 260.5,225C 268.871,228.909 272.037,235.409 270,244.5C 267.399,251.053 262.566,254.553 255.5,255C 232.458,255.947 209.458,255.614 186.5,254C 178.129,250.091 174.963,243.591 177,234.5C 179.821,228.023 184.655,224.356 191.5,223.5 Z"/></g>
</svg>
